<svg width="664" height="435" viewBox="0 0 664 435" fill="none" xmlns="http://www.w3.org/2000/svg">
<path opacity="0.2" d="M609.605 111.337H358.733C349.1 111.337 341.305 105.254 341.305 97.7369C341.305 90.22 349.1 84.1373 358.733 84.1373H395.552C420.521 84.1373 440.78 68.3287 440.78 48.8442C440.78 29.3596 420.521 13.551 395.552 13.551H87.4546C62.4857 13.551 42.2275 29.3596 42.2275 48.8442C42.2275 68.3287 62.4857 84.1373 87.4546 84.1373H217.58C227.213 84.1373 235.008 90.22 235.008 97.7369C235.008 105.254 227.213 111.337 217.58 111.337H182.176C152.137 111.337 127.781 130.343 127.781 153.784C127.781 177.225 152.137 196.231 182.176 196.231H411.311C420.944 196.231 428.739 202.314 428.739 209.831C428.739 217.167 421.303 223.117 411.987 223.398H49.2196C22.0326 223.398 0 240.591 0 261.806C0 283.022 22.0326 300.215 49.2196 300.215H156.7C166.333 300.215 174.128 306.298 174.128 313.815C174.128 320.639 167.685 326.277 159.277 327.249H141.807C114.62 327.249 92.5878 344.443 92.5878 365.658C92.5878 386.874 114.62 404.067 141.807 404.067H486.957C514.144 404.067 536.177 386.874 536.177 365.658C536.177 344.443 514.144 327.249 486.957 327.249H456.961C448.553 326.277 442.11 320.639 442.11 313.815C442.11 306.298 449.905 300.215 459.538 300.215H566.68C593.867 300.215 615.9 283.022 615.9 261.806C615.9 240.591 593.867 223.398 566.68 223.398H551.809C542.493 223.117 535.057 217.15 535.057 209.831C535.057 202.314 542.852 196.231 552.485 196.231H609.605C639.644 196.231 664 177.225 664 153.784C664 130.343 639.644 111.337 609.605 111.337ZM335.813 313.831C335.813 320.656 329.37 326.293 320.963 327.266H295.254C286.847 326.293 280.404 320.656 280.404 313.831C280.404 306.314 288.199 300.231 297.831 300.231H318.385C328.018 300.231 335.813 306.314 335.813 313.831Z" fill="#C4C4C4"/>
<path opacity="0.5" d="M444.984 434.455H188.201C181.386 434.455 175.855 428.925 175.855 422.11C175.855 415.295 181.386 409.765 188.201 409.765H444.984C451.799 409.765 457.33 415.295 457.33 422.11C457.33 428.925 451.799 434.455 444.984 434.455Z" fill="#FCAF1B"/>
<path opacity="0.5" d="M144.711 434.455H114.802C107.988 434.455 102.457 428.925 102.457 422.11C102.457 415.295 107.988 409.765 114.802 409.765H144.711C151.526 409.765 157.056 415.295 157.056 422.11C157.056 428.925 151.542 434.455 144.711 434.455Z" fill="#FCAF1B"/>
<path opacity="0.5" d="M482.65 434.455H483.539C476.724 434.455 471.193 428.925 471.193 422.11C471.193 415.295 476.724 409.765 483.539 409.765H482.65C489.464 409.765 494.995 415.295 494.995 422.11C494.979 428.925 489.464 434.455 482.65 434.455Z" fill="#FCAF1B"/>
<path d="M303.752 237.983L290.353 237.9L290.205 261.455L257.745 261.241L257.893 237.686L209.367 237.374L209.515 213.226L260.609 139.549L290.995 139.746L290.517 213.341L303.916 213.424L303.752 237.983ZM258.041 213.127L258.14 198.971C258.156 196.305 258.271 192.716 258.502 188.19C258.732 183.663 258.897 181.293 259.012 181.079H258.09C256.181 185.342 254.008 189.325 251.605 193.029L237.992 212.996L258.041 213.127Z" fill="#36A66A"/>
<path opacity="0.1" d="M290.337 237.901L303.735 237.983L303.9 213.424L290.501 213.342L290.649 189.227C289.151 190.511 287.736 191.91 286.419 193.474C278.452 202.988 273.629 218.527 271.95 240.106C271.358 247.859 271.325 254.937 271.884 261.324L290.172 261.439L290.337 237.901Z" fill="black"/>
<path d="M367.569 246.904C365.906 268.369 361.084 283.825 353.133 293.257C345.166 302.689 333.776 306.837 318.945 305.685C304.443 304.565 293.925 298.508 287.373 287.496C280.822 276.5 278.337 260.698 279.933 240.123C281.596 218.543 286.419 203.004 294.402 193.49C302.369 183.976 313.776 179.795 328.607 180.947C343.043 182.067 353.561 188.157 360.129 199.202C366.697 210.247 369.182 226.148 367.569 246.904ZM312.542 242.641C311.472 256.369 311.603 265.867 312.92 271.151C314.237 276.434 316.92 279.233 320.953 279.529C325.052 279.842 328.146 277.406 330.237 272.237C332.344 267.052 333.907 257.768 334.944 244.386C335.981 230.938 335.85 221.456 334.566 215.926C333.265 210.395 330.599 207.481 326.566 207.169C322.533 206.856 319.455 209.243 317.332 214.296C315.208 219.35 313.611 228.798 312.542 242.641Z" fill="#FCAF1B"/>
<path opacity="0.1" d="M360.114 199.185C357.991 195.613 355.456 192.585 352.526 190.05L339.045 216.255L342.057 240.205L368.032 236.946C368.229 220.996 365.596 208.403 360.114 199.185Z" fill="black"/>
<path d="M441.477 222.971L428.177 224.633L431.107 248.007L398.894 252.057L395.964 228.683L347.817 234.724L344.805 210.774L385.808 131.039L415.963 127.253L425.115 200.272L438.415 198.609L441.477 222.971ZM392.902 204.305L391.141 190.264C390.812 187.614 390.45 184.042 390.087 179.532C389.709 175.022 389.577 172.651 389.66 172.404L388.754 172.52C387.421 176.997 385.791 181.227 383.882 185.211L373.001 206.79L392.902 204.305Z" fill="#36A66A"/>
<path d="M432.92 329.618H219.18L194.275 160.553H464.145L432.92 329.618ZM229.616 317.553H422.879L449.627 172.635H208.25L229.616 317.553Z" fill="#DADADA"/>
<path d="M448.41 210.345H209.732V216.929H448.41V210.345Z" fill="#DADADA"/>
<path d="M438.517 273.636H219.625V280.22H438.517V273.636Z" fill="#DADADA"/>
<path d="M332.362 166.594H325.777V323.594H332.362V166.594Z" fill="#DADADA"/>
<path d="M255.217 166.26L248.668 166.94L264.973 323.943L271.522 323.263L255.217 166.26Z" fill="#DADADA"/>
<path d="M402.967 166.217L383.652 323.216L390.187 324.02L409.502 167.021L402.967 166.217Z" fill="#DADADA"/>
<path d="M197.057 176.684L168.201 148.026H130.062V127.5H176.662L211.525 162.133L197.057 176.684Z" fill="#DADADA"/>
<path d="M419.048 386.489H223.612C202.197 386.489 184.766 369.058 184.766 347.643C184.766 326.228 202.197 308.796 223.612 308.796H224.402V329.322H223.612C213.506 329.322 205.292 337.536 205.292 347.643C205.292 357.749 213.506 365.963 223.612 365.963H419.064V386.489H419.048Z" fill="#DADADA"/>
<path d="M154.442 148.026H117.406C111.744 148.026 107.135 143.434 107.135 137.755C107.135 132.092 111.727 127.483 117.406 127.483H154.442C160.105 127.483 164.714 132.076 164.714 137.755C164.697 143.434 160.105 148.026 154.442 148.026Z" fill="#F3744C"/>
<path d="M450.982 391.359C454.108 371.487 440.532 352.842 420.66 349.716C400.787 346.59 382.143 360.165 379.016 380.038C375.89 399.911 389.465 418.555 409.338 421.681C429.211 424.808 447.855 411.232 450.982 391.359Z" fill="#28384F"/>
<path d="M433.112 388.511C434.68 378.516 427.848 369.141 417.852 367.573C407.857 366.004 398.482 372.836 396.914 382.832C395.346 392.828 402.177 402.202 412.173 403.77C422.169 405.339 431.543 398.507 433.112 388.511Z" fill="white"/>
<path d="M259.918 391.565C263.163 371.71 249.698 352.984 229.844 349.739C209.989 346.494 191.263 359.959 188.018 379.813C184.773 399.668 198.238 418.394 218.092 421.639C237.947 424.884 256.673 411.419 259.918 391.565Z" fill="#28384F"/>
<path d="M242.039 388.607C243.665 378.62 236.887 369.206 226.9 367.58C216.914 365.954 207.5 372.732 205.874 382.718C204.248 392.705 211.025 402.119 221.012 403.745C230.999 405.371 240.413 398.593 242.039 388.607Z" fill="white"/>
<path d="M228.953 64.9007C228.953 67.4686 226.863 69.5591 224.295 69.5591C221.727 69.5591 219.637 67.4686 219.637 64.9007C219.637 62.3329 221.727 60.2424 224.295 60.2424C226.863 60.2424 228.953 62.3164 228.953 64.9007Z" fill="#FCAF1B"/>
<path d="M342.617 149.162C345.798 149.162 348.378 146.583 348.378 143.401C348.378 140.219 345.798 137.64 342.617 137.64C339.435 137.64 336.855 140.219 336.855 143.401C336.855 146.583 339.435 149.162 342.617 149.162Z" fill="#33AEFF"/>
<path d="M493.95 120.587C496.45 120.587 498.477 118.56 498.477 116.06C498.477 113.56 496.45 111.533 493.95 111.533C491.45 111.533 489.424 113.56 489.424 116.06C489.424 118.56 491.45 120.587 493.95 120.587Z" fill="#36A66A"/>
<path d="M236.89 260.912C239.39 260.912 241.417 258.886 241.417 256.386C241.417 253.886 239.39 251.859 236.89 251.859C234.39 251.859 232.363 253.886 232.363 256.386C232.363 258.886 234.39 260.912 236.89 260.912Z" fill="#FCAF1B"/>
<path d="M340.771 9.4782C343.271 9.4782 345.297 7.45155 345.297 4.95156C345.297 2.45157 343.271 0.424927 340.771 0.424927C338.271 0.424927 336.244 2.45157 336.244 4.95156C336.244 7.45155 338.271 9.4782 340.771 9.4782Z" fill="#4FA3D2"/>
<path d="M531.943 200.832C534.443 200.832 536.469 198.805 536.469 196.305C536.469 193.805 534.443 191.778 531.943 191.778C529.443 191.778 527.416 193.805 527.416 196.305C527.416 198.805 529.443 200.832 531.943 200.832Z" fill="#F3744C"/>
<path d="M353.939 360.778C356.439 360.778 358.465 358.751 358.465 356.251C358.465 353.751 356.439 351.725 353.939 351.725C351.439 351.725 349.412 353.751 349.412 356.251C349.412 358.751 351.439 360.778 353.939 360.778Z" fill="#36A66A"/>
<path d="M101.236 93.4266C103.736 93.4266 105.762 91.3999 105.762 88.8999C105.762 86.3999 103.736 84.3733 101.236 84.3733C98.7356 84.3733 96.709 86.3999 96.709 88.8999C96.709 91.3999 98.7356 93.4266 101.236 93.4266Z" fill="#F3744C"/>
<path d="M160.429 178.511C160.429 181.985 157.615 184.799 154.141 184.799C150.668 184.799 147.854 181.985 147.854 178.511C147.854 175.038 150.668 172.224 154.141 172.224C157.615 172.224 160.429 175.038 160.429 178.511Z" fill="#36A66A"/>
<path d="M371.964 32.2432C371.964 33.9057 370.614 35.2555 368.952 35.2555C367.289 35.2555 365.939 33.9057 365.939 32.2432C365.939 30.5807 367.289 29.231 368.952 29.231C370.614 29.231 371.964 30.5807 371.964 32.2432Z" fill="#F3744C"/>
<path d="M219.624 152.174C221.287 152.174 222.636 150.826 222.636 149.162C222.636 147.498 221.287 146.15 219.624 146.15C217.96 146.15 216.611 147.498 216.611 149.162C216.611 150.826 217.96 152.174 219.624 152.174Z" fill="#F3744C"/>
<path d="M482.234 217.325C482.234 219.35 480.588 220.996 478.563 220.996C476.539 220.996 474.893 219.35 474.893 217.325C474.893 215.3 476.539 213.654 478.563 213.654C480.588 213.638 482.234 215.284 482.234 217.325Z" fill="#33AEFF"/>
<path d="M292.118 348.4C294.145 348.4 295.789 346.757 295.789 344.729C295.789 342.702 294.145 341.059 292.118 341.059C290.091 341.059 288.447 342.702 288.447 344.729C288.447 346.757 290.091 348.4 292.118 348.4Z" fill="#4FA3D2"/>
<path d="M241.172 14.8445H238.95V12.6224C238.95 11.1903 237.782 10.0216 236.349 10.0216C234.917 10.0216 233.749 11.1903 233.749 12.6224V14.8445H231.527C230.094 14.8445 228.926 16.0132 228.926 17.4453C228.926 18.8774 230.094 20.046 231.527 20.046H233.749V22.2682C233.749 23.7003 234.917 24.869 236.349 24.869C237.782 24.869 238.95 23.7003 238.95 22.2682V20.046H241.172C242.604 20.046 243.773 18.8774 243.773 17.4453C243.773 15.9968 242.604 14.8445 241.172 14.8445Z" fill="#28384F"/>
<path d="M472.293 274.344H470.071V272.122C470.071 270.69 468.903 269.521 467.471 269.521C466.039 269.521 464.87 270.69 464.87 272.122V274.344H462.648C461.216 274.344 460.047 275.513 460.047 276.945C460.047 278.377 461.216 279.546 462.648 279.546H464.87V281.768C464.87 283.2 466.039 284.368 467.471 284.368C468.903 284.368 470.071 283.2 470.071 281.768V279.546H472.293C473.726 279.546 474.894 278.377 474.894 276.945C474.894 275.496 473.726 274.344 472.293 274.344Z" fill="#28384F"/>
<path d="M479.696 62.3002H477.474V60.078C477.474 58.646 476.305 57.4773 474.873 57.4773C473.441 57.4773 472.272 58.646 472.272 60.078V62.3002H470.05C468.618 62.3002 467.449 63.4689 467.449 64.901C467.449 66.333 468.618 67.5017 470.05 67.5017H472.272V69.7239C472.272 71.156 473.441 72.3246 474.873 72.3246C476.305 72.3246 477.474 71.156 477.474 69.7239V67.5017H479.696C481.128 67.5017 482.297 66.333 482.297 64.901C482.297 63.4689 481.128 62.3002 479.696 62.3002Z" fill="#28384F"/>
<path d="M176.547 235.086H174.325V232.864C174.325 231.432 173.157 230.263 171.724 230.263C170.292 230.263 169.124 231.432 169.124 232.864V235.086H166.902C165.469 235.086 164.301 236.255 164.301 237.687C164.301 239.119 165.469 240.287 166.902 240.287H169.124V242.51C169.124 243.942 170.292 245.11 171.724 245.11C173.157 245.11 174.325 243.942 174.325 242.51V240.287H176.547C177.979 240.287 179.148 239.119 179.148 237.687C179.132 236.255 177.979 235.086 176.547 235.086Z" fill="#28384F"/>
<path d="M171.837 89.7232C170.915 89.7232 169.977 89.4598 169.138 88.9166L154.093 79.0568C151.805 77.5589 151.179 74.4972 152.677 72.2257C154.175 69.9377 157.237 69.3122 159.508 70.8101L174.553 80.6699C176.841 82.1678 177.467 85.2295 175.969 87.501C175.014 88.9331 173.45 89.7232 171.837 89.7232Z" fill="#4FA3D2"/>
<path d="M431.848 46.6463C430.861 46.6463 429.873 46.35 429.017 45.741C426.795 44.1773 426.252 41.0827 427.816 38.8605L441.149 19.931C442.712 17.7088 445.79 17.1656 448.029 18.7294C450.251 20.2931 450.794 23.3877 449.231 25.6098L435.898 44.5394C434.926 45.9221 433.396 46.6463 431.848 46.6463Z" fill="#36A66A"/>
<path d="M521.526 148.339C519.353 148.339 517.362 146.891 516.769 144.685C516.061 142.051 517.609 139.335 520.242 138.627L541.098 132.998C543.731 132.29 546.447 133.837 547.155 136.471C547.863 139.105 546.316 141.821 543.682 142.529L522.827 148.158C522.382 148.29 521.954 148.339 521.526 148.339Z" fill="#4FA3D2"/>
<path d="M490.745 330.162C489.741 330.162 488.721 329.849 487.848 329.224L470.844 316.878C468.639 315.282 468.145 312.187 469.742 309.981C471.338 307.776 474.433 307.282 476.639 308.878L493.642 321.224C495.848 322.82 496.342 325.915 494.729 328.121C493.774 329.454 492.276 330.162 490.745 330.162Z" fill="#36A66A"/>
<path d="M142.934 305.092C141.387 305.092 139.872 304.368 138.917 303.018C137.337 300.796 137.847 297.718 140.07 296.138L157.567 283.644C159.789 282.064 162.867 282.574 164.448 284.796C166.028 287.019 165.518 290.097 163.295 291.677L145.798 304.17C144.926 304.796 143.938 305.092 142.934 305.092Z" fill="#FCAF1B"/>
<path d="M300.264 37.1814C297.992 37.1814 295.935 35.6012 295.441 33.2803L289.548 5.98879C288.972 3.32219 290.667 0.688512 293.334 0.112395C296 -0.463722 298.634 1.23171 299.21 3.89831L305.103 31.1898C305.679 33.8564 303.984 36.4901 301.317 37.0662C300.955 37.1485 300.609 37.1814 300.264 37.1814Z" fill="#FCAF1B"/>
<path d="M90.8037 213.325C88.7132 213.325 86.7544 211.975 86.096 209.868C85.273 207.268 86.7215 204.486 89.3223 203.679L110.178 197.095C112.778 196.272 115.544 197.721 116.367 200.321C117.19 202.922 115.741 205.704 113.141 206.51L92.2852 213.095C91.8078 213.243 91.2975 213.325 90.8037 213.325Z" fill="#36A66A"/>
<path d="M533.608 246.23C533.296 246.23 532.983 246.197 532.67 246.131L514.02 242.509C511.337 241.983 509.592 239.398 510.119 236.715C510.646 234.032 513.214 232.288 515.913 232.814L534.563 236.436C537.246 236.962 538.991 239.547 538.464 242.23C537.987 244.6 535.913 246.23 533.608 246.23Z" fill="#FCAF1B"/>
<path d="M240.794 124.356C236.021 125.459 232.021 125.048 228.795 123.122C225.568 121.196 223.412 117.887 222.326 113.196C221.206 108.357 221.569 104.357 223.412 101.213C225.256 98.0525 228.449 95.962 232.976 94.9085C237.288 93.9044 240.877 94.2665 243.757 95.962C246.638 97.6739 248.547 100.637 249.535 104.867L250.555 109.262L232.877 113.344C233.321 114.924 234.194 116.044 235.511 116.702C236.827 117.361 238.441 117.459 240.333 117.031C242.062 116.636 243.626 116.093 245.008 115.435C246.391 114.76 247.839 113.838 249.354 112.653L251 119.764C249.634 120.916 248.152 121.838 246.572 122.513C245.025 123.221 243.082 123.83 240.794 124.356ZM234.901 101.559C233.733 101.822 232.844 102.414 232.235 103.336C231.626 104.258 231.428 105.509 231.659 107.106L240.152 105.147C239.807 103.781 239.148 102.76 238.21 102.102C237.272 101.443 236.169 101.262 234.901 101.559Z" fill="#28384F"/>
<path d="M291.898 72.5549C292.771 72.6208 293.61 72.7689 294.384 72.9664L294.944 73.1146L293.248 82.5794C292.442 82.2995 291.306 82.102 289.841 81.9868C287.635 81.8057 285.989 82.1679 284.903 83.1061C283.816 84.0279 283.191 85.4435 283.043 87.3365L281.841 101.739L271.734 100.9L274.171 71.6002L281.693 72.2257L282.878 77.0322L283.372 77.0816C284.343 75.6001 285.627 74.4479 287.224 73.6084C288.787 72.7689 290.351 72.4232 291.898 72.5549Z" fill="#28384F"/>
<path d="M335.784 87.2541C336.656 87.0895 337.496 87.0072 338.302 86.9907H338.878L339.751 96.5707C338.895 96.5213 337.743 96.6366 336.294 96.8999C334.121 97.3114 332.623 98.1015 331.833 99.2867C331.027 100.472 330.813 101.986 331.158 103.863L333.825 118.068L323.85 119.945L318.418 91.04L325.842 89.6408L328.261 93.97L328.739 93.8712C329.282 92.1922 330.22 90.7273 331.521 89.5092C332.854 88.2911 334.269 87.5339 335.784 87.2541Z" fill="#28384F"/>
<path d="M439.345 90.0033C440.234 89.9704 441.074 90.0198 441.864 90.135L442.44 90.2173L441.831 99.8137C440.991 99.6327 439.839 99.5668 438.374 99.6162C436.168 99.6821 434.572 100.242 433.6 101.295C432.629 102.332 432.168 103.814 432.234 105.707L432.695 120.159L422.555 120.488L421.617 91.1062L429.173 90.8593L430.901 95.5011L431.395 95.4846C432.185 93.9044 433.337 92.6041 434.819 91.6C436.3 90.5794 437.814 90.0527 439.345 90.0033Z" fill="#28384F"/>
<path d="M395.896 90.4969C395.419 97.1963 393.938 102.019 391.468 104.966C388.999 107.912 385.444 109.229 380.835 108.9C376.308 108.57 373.016 106.694 370.959 103.287C368.901 99.8629 368.095 94.9412 368.555 88.5216C369.049 81.7893 370.514 76.9334 372.983 73.9541C375.452 70.9747 379.008 69.6579 383.617 69.9871C388.127 70.3163 391.403 72.1928 393.477 75.6331C395.567 79.0733 396.374 84.0114 395.896 90.4969ZM378.745 89.2459C378.432 93.5256 378.498 96.4885 378.909 98.1345C379.321 99.7806 380.16 100.653 381.428 100.735C382.712 100.834 383.666 100.06 384.308 98.4473C384.95 96.8342 385.427 93.9371 385.724 89.7561C386.02 85.5587 385.971 82.6123 385.559 80.8839C385.148 79.1556 384.308 78.2503 383.041 78.168C381.773 78.0692 380.819 78.8264 380.177 80.4066C379.535 81.9868 379.057 84.9332 378.745 89.2459Z" fill="#28384F"/>
</svg>
