<svg width="47" height="44" viewBox="0 0 47 44" fill="none" xmlns="http://www.w3.org/2000/svg">
<path d="M15.0636 18.1025C16.135 18.1025 17.0045 17.2966 17.0045 16.3035V9.28739C17.0045 6.15082 19.7575 3.59802 23.1423 3.59802C26.5261 3.59802 29.2802 6.15082 29.2802 9.28739V16.3035C29.2802 17.2966 30.1496 18.1025 31.221 18.1025C32.2923 18.1025 33.1618 17.2966 33.1618 16.3035V9.28739C33.1618 4.16651 28.6669 0 23.1423 0C17.6187 0 13.1238 4.16651 13.1238 9.28739V16.3035C13.1228 17.2966 13.9923 18.1025 15.0636 18.1025Z" fill="#36A66A"/>
<path d="M45.4056 14.0602H35.1027V16.3035C35.1027 18.2879 33.3618 19.9016 31.2211 19.9016C29.0813 19.9016 27.3394 18.2879 27.3394 16.3035V14.0602H18.9463V16.3035C18.9463 18.2879 17.2054 19.9016 15.0647 19.9016C12.924 19.9016 11.183 18.2879 11.183 16.3035V14.0602H0.766635C0.230967 14.0602 -0.0999432 14.4515 0.0271808 14.9336L6.81715 40.5677C7.22764 42.0087 8.86278 43.1763 10.4708 43.1763H35.7015C37.3104 43.1763 38.9446 42.0078 39.357 40.5677L46.146 14.9336C46.2722 14.4506 45.9422 14.0602 45.4056 14.0602Z" fill="#36A66A"/>
</svg>
