<svg width="40" height="38" viewBox="0 0 40 38" fill="none" xmlns="http://www.w3.org/2000/svg">
<path d="M39.1658 6.41736C38.4463 5.54076 37.3547 5.05285 36.2217 5.05285H11.6356C10.9327 5.05285 10.2628 5.25132 9.68393 5.60692L8.42692 1.21566C8.22018 0.496188 7.56686 0 6.82258 0H4.91226H1.26528C0.570616 0 0 0.562346 0 1.26528V1.3976C0 2.09226 0.562346 2.66287 1.26528 2.66287H6.04522L8.48481 11.2883L11.8424 23.1885C9.93203 23.6682 8.51789 25.3965 8.51789 27.4475C8.51789 29.7713 10.329 31.6816 12.6197 31.8305C12.4295 32.3763 12.3385 32.98 12.3882 33.6002C12.5536 35.7007 14.2654 37.396 16.3659 37.5366C18.8717 37.7103 20.9639 35.7173 20.9639 33.2529C20.9639 32.7567 20.8812 32.2853 20.7241 31.8387H25.7521C25.5454 32.4259 25.4627 33.0792 25.5371 33.749C25.7687 35.7834 27.4475 37.3878 29.4984 37.5366C32.0041 37.7103 34.1046 35.7255 34.1046 33.2529C34.1046 30.8629 32.1199 28.9526 29.7382 28.9526H12.9422C12.1235 28.9526 11.4289 28.3158 11.3958 27.5053C11.3627 26.6453 12.0491 25.9424 12.9009 25.9424H15.4232H29.0931H32.9386C34.6422 25.9424 36.1307 24.7763 36.5442 23.1224L39.8852 9.67566C40.1747 8.51789 39.91 7.33531 39.1658 6.41736ZM29.8126 31.8305C30.59 31.8305 31.2268 32.4672 31.2268 33.2446C31.2268 34.0219 30.59 34.6587 29.8126 34.6587C29.0353 34.6587 28.3985 34.0219 28.3985 33.2446C28.3985 32.4672 29.027 31.8305 29.8126 31.8305ZM16.6719 31.8305C17.4493 31.8305 18.086 32.4672 18.086 33.2446C18.086 34.0219 17.4493 34.6587 16.6719 34.6587C15.8946 34.6587 15.2578 34.0219 15.2578 33.2446C15.2578 32.4672 15.8863 31.8305 16.6719 31.8305ZM11.4785 11.2717L10.8334 8.99754C10.7342 8.65021 10.8748 8.39384 10.974 8.2698C11.065 8.14575 11.28 7.93901 11.6356 7.93901H14.3316L15.0676 11.28H11.4785V11.2717ZM12.2889 14.1496H15.6961L16.3742 17.2425H13.1572L12.2889 14.1496ZM15.4232 23.0479C15.051 23.0479 14.7202 22.7998 14.621 22.436L13.9677 20.1204H17.0027L17.6477 23.0397H15.4232V23.0479ZM22.6262 23.0479H20.5918L19.9468 20.1287H22.6179V23.0479H22.6262ZM22.6262 17.2425H19.3182L18.6401 14.1496H22.6262V17.2425ZM22.6262 11.2717H18.0116L17.2756 7.93074H22.6262V11.2717ZM27.7865 23.0479H25.5123V20.1287H28.3985L27.7865 23.0479ZM29.0105 17.2425H25.5123V14.1496H29.6638L29.0105 17.2425ZM25.5123 11.2717V7.93074H30.9704L30.2675 11.2717H25.5123ZM33.7573 22.4194C33.6663 22.7916 33.3356 23.0562 32.9469 23.0562H30.7306L31.3508 20.137H34.3279L33.7573 22.4194ZM35.0391 17.2425H31.9545L32.6078 14.1496H35.8082L35.0391 17.2425ZM37.09 8.96446L36.5194 11.2635H33.2115L33.9144 7.92247H36.2796C36.6352 7.92247 36.8419 8.12094 36.9329 8.24499C37.0322 8.36903 37.181 8.6254 37.09 8.96446Z" fill="#36A66A"/>
</svg>
