<svg width="34" height="35" viewBox="0 0 34 35" fill="none" xmlns="http://www.w3.org/2000/svg">
<path d="M16.2909 5.66655H30.457C31.6286 5.66655 32.582 4.7132 32.582 3.54163C32.582 1.58956 30.9925 0.00012207 29.0405 0.00012207H17.7075C15.7555 0.00012207 14.166 1.58956 14.166 3.54163C14.166 4.7132 15.1194 5.66655 16.2909 5.66655Z" fill="#C4C4C4"/>
<path d="M32.602 8.63021L32.3385 8.30158C32.1388 8.05223 31.9532 7.7576 31.7704 7.40061C31.6302 7.12723 31.3298 6.96574 31.0253 7.02523C30.8397 7.05498 30.6527 7.08473 30.4587 7.08473H16.2925C16.0984 7.08473 15.9114 7.05498 15.7259 7.02523C15.4185 6.96713 15.121 7.12723 14.9807 7.40061C14.798 7.7576 14.6124 8.05223 14.4127 8.30158L14.1478 8.63167C13.2468 9.75788 12.751 11.1717 12.751 12.6152V30.4603C12.751 32.4123 14.3404 34.0018 16.2925 34.0018H30.4586C32.4107 34.0018 34.0001 32.4123 34.0001 30.4603V12.6151C33.9988 11.1702 33.503 9.75642 32.602 8.63021ZM31.1655 24.7909C31.1655 25.1819 30.8482 25.4992 30.4572 25.4992H16.2911C15.9001 25.4992 15.5828 25.1819 15.5828 24.7909V14.8746C15.5828 14.4836 15.9001 14.1663 16.2911 14.1663H30.4572C30.8482 14.1663 31.1655 14.4836 31.1655 14.8746V24.7909Z" fill="#C4C4C4"/>
<path d="M5.66629 2.83337C2.33589 2.83337 0 8.34814 0 11.3328C0 13.6716 1.42506 15.6817 3.45079 16.5473L2.83318 31.165C2.83318 32.7275 4.10385 33.9981 5.66636 33.9981C7.22887 33.9981 8.49954 32.7275 8.49954 31.1352L7.88193 16.5473C9.90766 15.6832 11.3327 13.6716 11.3327 11.3328C11.3326 8.34807 8.99669 2.83337 5.66629 2.83337Z" fill="#C4C4C4"/>
</svg>
