<svg width="41" height="34" viewBox="0 0 41 34" fill="none" xmlns="http://www.w3.org/2000/svg">
<path d="M9.50739 7.88726C8.55573 9.20913 8.30001 10.9089 8.82062 12.4523C8.95663 12.6323 9.09351 12.8291 9.23055 13.0307C9.28735 13.1145 9.34432 13.2003 9.40137 13.288C9.50304 13.4441 9.60399 13.5991 9.6987 13.7556C9.79618 13.7493 9.89793 13.745 10.0024 13.745C10.3059 13.7458 10.6087 13.771 10.9081 13.8202C11.0064 13.8361 11.1 13.8666 11.197 13.8875C11.3925 13.9261 11.586 13.9747 11.7764 14.0333C11.8884 14.0699 11.9941 14.1196 12.1033 14.1628C12.2696 14.2286 12.4356 14.2935 12.5946 14.374C12.7058 14.4303 12.8099 14.497 12.9171 14.5601C13.064 14.6467 13.2098 14.7333 13.3485 14.8322C13.4531 14.9068 13.5507 14.9889 13.6502 15.0701C13.779 15.1754 13.9055 15.282 14.025 15.3979C14.1189 15.4889 14.2064 15.5848 14.2942 15.6821C14.4046 15.8045 14.5107 15.9295 14.6107 16.0612C14.6908 16.1668 14.7657 16.2752 14.8387 16.3866C14.9294 16.5248 15.0131 16.6666 15.0919 16.813C15.1553 16.931 15.2155 17.0496 15.2709 17.1726C15.3 17.2372 15.3383 17.2961 15.3651 17.362H16.3406C16.3332 17.3146 16.3334 17.2684 16.3268 17.2212C16.2935 16.9872 16.2702 16.7551 16.2585 16.525C16.256 16.4722 16.2547 16.4199 16.2533 16.3674C16.2453 16.1078 16.2514 15.848 16.2716 15.5891C16.2728 15.5741 16.2733 15.5588 16.2747 15.5438C16.3642 14.4877 16.691 13.4655 17.2307 12.5534C17.2834 12.4635 17.3472 12.3817 17.4032 12.2942C17.4405 12.2355 17.4803 12.1775 17.5195 12.1193C17.6549 11.9188 17.7963 11.7236 17.9476 11.5354C17.9962 11.4747 18.0469 11.4146 18.0976 11.3545C18.2584 11.1644 18.4247 10.9804 18.5989 10.8031C18.6264 10.775 18.6488 10.7453 18.6768 10.7174C18.6059 8.22241 16.7419 6.1902 14.3394 5.84152C14.3407 5.82379 14.3421 5.80599 14.3421 5.78795C14.3437 4.19059 15.6383 2.89601 17.2357 2.89443C17.6351 2.89443 17.9591 2.57059 17.9591 2.17103C17.9591 1.77155 17.6352 1.44763 17.2357 1.44763C15.7798 1.44842 14.4215 2.17934 13.6187 3.39384C12.8162 2.17942 11.4581 1.4485 10.0024 1.44763C9.60297 1.44763 9.27905 1.77147 9.27905 2.17103C9.27905 2.57051 9.60289 2.89443 10.0024 2.89443C11.5996 2.89633 12.8938 4.19082 12.8953 5.78795C12.8953 5.80488 12.8967 5.8215 12.8978 5.83819C11.5461 6.02935 10.3171 6.76264 9.50739 7.88726Z" fill="#BDBDBD"/>
<path d="M17.6955 16.1157C17.6954 16.1384 17.6938 16.161 17.6939 16.1839C17.6954 16.4423 17.7133 16.7004 17.7474 16.9566C17.7538 17.0056 17.7622 17.055 17.7698 17.1042C17.7828 17.1892 17.8066 17.2764 17.8231 17.362H19.2253C19.23 17.3501 19.2368 17.3394 19.2415 17.3275C19.3589 17.0327 19.4936 16.745 19.6451 16.4661C19.6678 16.4244 19.6904 16.3831 19.7137 16.3419C20.7332 14.5256 22.4286 13.1855 24.4311 12.6129L24.4465 12.6085C24.7823 12.5122 25.1242 12.4382 25.4699 12.3869C25.5846 12.2205 25.6994 12.054 25.7981 11.8919C25.8251 11.8475 25.8483 11.8051 25.8738 11.7615C25.9877 11.5674 26.0912 11.3763 26.1814 11.1891C26.2043 11.1415 26.2253 11.0952 26.2462 11.0487C26.323 10.8799 26.3879 10.7148 26.445 10.5521C26.4703 10.4793 26.4944 10.4074 26.5152 10.3377C26.5573 10.1985 26.5899 10.0625 26.6169 9.92818C26.7781 9.29815 26.6952 8.63045 26.385 8.05896C23.9961 8.75451 21.7815 9.94757 19.8864 11.5598C19.4392 11.9764 19.0409 12.4424 18.6991 12.949C18.6834 12.9724 18.6681 12.9961 18.6527 13.0197C18.0407 13.9373 17.7082 15.0128 17.6955 16.1157Z" fill="#BDBDBD"/>
<path d="M26.1841 13.7771C26.0868 13.7838 25.9887 13.7866 25.8926 13.7976C25.6639 13.8252 25.4369 13.8651 25.2125 13.9169C25.1327 13.9347 25.0512 13.9476 24.9724 13.9682C24.7313 14.0332 24.4943 14.112 24.2623 14.2043C24.2084 14.2254 24.1522 14.2415 24.0989 14.264C23.843 14.3728 23.5944 14.4981 23.3547 14.6388C23.3305 14.6529 23.3045 14.6638 23.2805 14.6782C22.217 15.3181 21.3593 16.2495 20.8091 17.3619H32.4726C32.3262 17.0671 32.1574 16.784 31.9676 16.515C31.9437 16.4808 31.915 16.4509 31.8906 16.4172C31.7209 16.1834 31.5359 15.9611 31.3366 15.752C31.3047 15.7187 31.2695 15.689 31.2369 15.6563C31.0352 15.4545 30.8207 15.266 30.5946 15.0919C30.3344 14.8933 30.0595 14.7149 29.7722 14.5581C29.5131 14.4156 29.2444 14.2914 28.9679 14.1865C28.9254 14.1702 28.8823 14.1549 28.8393 14.1395C28.5779 14.0466 28.3108 13.9704 28.0398 13.9112C27.9845 13.8991 27.9295 13.8863 27.8738 13.8756C27.625 13.829 27.3738 13.7968 27.1213 13.7789C27.0366 13.7726 26.9526 13.764 26.8672 13.7611C26.6395 13.7542 26.4114 13.7596 26.1841 13.7771Z" fill="#BDBDBD"/>
<path d="M33.23 15.798C33.3733 16.0108 33.5065 16.2314 33.6297 16.4595C33.6504 16.4977 33.6725 16.5349 33.6926 16.5734C33.8198 16.8177 33.9343 17.0684 34.0357 17.3245C34.0407 17.3373 34.0478 17.3491 34.0528 17.362H35.6762C36.5411 16.212 37.1417 14.8854 37.4352 13.4766C35.6138 12.6319 33.4606 12.9923 32.0137 14.3841C32.4556 14.7888 32.85 15.2425 33.1893 15.7364C33.2033 15.7567 33.2162 15.7776 33.23 15.798Z" fill="#BDBDBD"/>
<path d="M7.73308 15.8464C7.66084 15.891 7.59146 15.9396 7.52207 15.9884C7.43496 16.0491 7.34943 16.1118 7.26706 16.1787C7.19316 16.239 7.12195 16.3023 7.05209 16.3671C6.98025 16.4336 6.91078 16.5025 6.84361 16.5738C6.77596 16.6453 6.71084 16.7191 6.64818 16.7954C6.58615 16.871 6.52776 16.9493 6.47079 17.0291C6.4143 17.1083 6.35892 17.1882 6.30765 17.2715C6.28961 17.3008 6.27473 17.3322 6.25732 17.3621H13.7414C13.702 17.2947 13.6648 17.2259 13.622 17.1609C13.581 17.0989 13.5416 17.036 13.4977 16.9764C13.4007 16.8463 13.2967 16.7216 13.1858 16.603C13.1523 16.5668 13.1225 16.527 13.0879 16.492C12.9398 16.3425 12.7812 16.2038 12.6133 16.0771C12.5715 16.0455 12.526 16.0196 12.4831 15.9895C12.3534 15.8976 12.2189 15.8127 12.08 15.7352C12.0157 15.6997 11.9491 15.6688 11.8831 15.6366C11.7566 15.5751 11.6274 15.519 11.495 15.4697C11.4234 15.4432 11.3515 15.4174 11.2784 15.3945C11.1372 15.3512 10.994 15.3151 10.8492 15.2866C10.7829 15.2731 10.7177 15.2561 10.6507 15.2458C10.2959 15.1834 9.93374 15.175 9.57651 15.2208C9.50879 15.2287 9.43869 15.2366 9.38101 15.2449C9.17577 15.2745 8.97298 15.3188 8.77415 15.3775C8.76513 15.3802 8.75651 15.3839 8.74757 15.3867C8.57334 15.4399 8.4026 15.5039 8.23645 15.5786C8.18043 15.6039 8.12679 15.6334 8.07196 15.661C7.95644 15.7184 7.84266 15.779 7.73308 15.8464Z" fill="#BDBDBD"/>
<path d="M0.245116 19.4071C2.24631 24.2647 5.73838 28.3613 10.2177 31.1064H19.4064C19.8059 31.1064 20.1298 31.4302 20.1298 31.8298C20.1298 32.2294 19.8059 32.5532 19.4064 32.5532H10.7258V33.3586C10.7264 33.7129 11.0137 33.9998 11.368 34H28.8918C29.2461 33.9998 29.5334 33.7129 29.5339 33.3586V32.5532H28.0871C27.6876 32.5532 27.3637 32.2294 27.3637 31.8298C27.3637 31.4302 27.6875 31.1064 28.0871 31.1064H30.0413C34.5196 28.3615 38.0112 24.2661 40.0131 19.41L40.2597 18.8088H0L0.245116 19.4071Z" fill="#BDBDBD"/>
<path d="M4.63894 17.362C4.67478 17.2736 4.72019 17.1907 4.76015 17.1047C4.78665 17.0478 4.81189 16.9906 4.84014 16.9348C4.9646 16.6853 5.10709 16.4453 5.26636 16.2165C5.27641 16.2023 5.28804 16.1895 5.29817 16.1754C5.45356 15.9607 5.62351 15.7571 5.80684 15.5658C5.84181 15.529 5.87615 15.4923 5.91199 15.4564C6.30268 15.0659 6.74718 14.7332 7.23204 14.4684C7.29486 14.4338 7.35776 14.4008 7.42185 14.3686C7.62566 14.2663 7.83533 14.1762 8.04975 14.0987C8.09129 14.0836 8.1295 14.0614 8.17143 14.0474C8.1598 14.0296 8.14802 14.0086 8.13638 13.9909C8.09311 13.9252 8.0503 13.8655 8.00726 13.8023C7.86809 13.6006 7.73746 13.4176 7.61087 13.2531C5.91855 11.0475 4.45838 10.8363 3.88935 10.8127C2.57848 12.7447 2.33036 15.2075 3.22956 17.3621H4.63894V17.362Z" fill="#BDBDBD"/>
<path d="M39.8907 2.93171V2.93163L38.83 2.5782L40.1732 1.23544C40.4527 0.952425 40.4511 0.496928 40.17 0.215733C39.8888 -0.0654618 39.4333 -0.066886 39.1502 0.212568L37.8077 1.55469L37.4548 0.495108C37.3283 0.115883 36.9185 -0.0890398 36.5393 0.0373158C36.16 0.163751 35.9551 0.573596 36.0815 0.952821L36.4927 2.18797C36.341 2.17033 36.1863 2.16558 36.0296 2.17848C35.5487 2.2201 35.0926 2.41006 34.7244 2.72212L35.8318 3.82949C36.111 4.1125 36.1094 4.56776 35.8283 4.84888C35.5472 5.12999 35.0919 5.1315 34.8089 4.85236L33.7517 3.79515L32.6734 5.01123L33.6617 5.99961C33.9409 6.28262 33.9394 6.73788 33.6583 7.019C33.3771 7.30011 32.9219 7.30162 32.6389 7.02248L31.7119 6.09558L30.2936 7.69508L31.4916 8.89313C31.7707 9.17614 31.7692 9.6314 31.4881 9.91252C31.207 10.1936 30.7518 10.1951 30.4687 9.916L29.3321 8.77943L28.0393 10.2375C28.0369 10.2488 28.0329 10.2605 28.0306 10.2719C28.0032 10.3996 27.9695 10.5305 27.9306 10.6652C27.9111 10.7334 27.8887 10.8022 27.8665 10.871C27.829 10.9861 27.7917 11.1008 27.7453 11.2207C27.6809 11.388 27.6082 11.557 27.5284 11.7275C27.4902 11.8086 27.447 11.8919 27.4047 11.975C27.3466 12.0897 27.2905 12.204 27.2256 12.3201L27.244 12.3223C28.2242 12.3959 29.1822 12.6507 30.0694 13.0739L37.524 6.46373C37.5428 6.4468 37.5626 6.43097 37.5833 6.41642C38.358 5.86289 38.7103 4.90347 38.5034 3.99374L39.4331 4.3035C39.8115 4.42851 40.2197 4.22383 40.3459 3.84579C40.4721 3.46775 40.2684 3.05901 39.8907 2.93171Z" fill="#BDBDBD"/>
</svg>
