<svg width="26" height="34" viewBox="0 0 26 34" fill="none" xmlns="http://www.w3.org/2000/svg">
<path d="M12.1771 17.1466C12.1771 15.7457 11.8314 14.3907 11.1678 13.2274L11.0106 12.9521H1.16332L1.0093 13.2274C0.347357 14.3891 0 15.7457 0 17.1466C0 20.7202 2.2742 23.6809 5.2251 24.1708V32.5155C3.52272 32.5844 2.25454 32.8432 2.25454 33.1496C2.25454 33.5134 3.98313 33.805 6.11643 33.805C8.25136 33.805 9.98323 33.5134 9.98323 33.1496C9.98323 32.8432 8.71505 32.5844 7.01267 32.5155V24.1642C9.93408 23.6432 12.1771 20.6939 12.1771 17.1466ZM6.08694 23.1533C3.33102 23.1533 1.08631 20.4596 1.08631 17.1434C1.08631 16.039 1.33372 14.9724 1.80724 14.0368H10.3683C10.8402 14.9724 11.0908 16.0407 11.0908 17.1434C11.0925 20.4613 8.84449 23.1533 6.08694 23.1533ZM22.6028 3.75539H18.2723V0H22.6028V3.75539ZM22.6028 8.40866V4.91051H18.2723V8.41029C16.4437 9.23445 15.1657 11.0728 15.1657 13.2127V16.642V27.5755V34H25.7077V27.5755V16.642V13.2127C25.7093 11.0728 24.4346 9.23445 22.6028 8.40866ZM24.777 28.6995H16.1898V18.3968H24.777V28.6995ZM10.637 17.2597C10.637 17.2597 10.4092 22.7076 6.16067 22.7076C1.9121 22.7076 1.33863 17.2597 1.33863 17.2597H10.637Z" fill="#BDBDBD"/>
</svg>
