<svg width="34" height="34" viewBox="0 0 34 34" fill="none" xmlns="http://www.w3.org/2000/svg">
<path d="M33.1853 0.816548C32.6427 0.274764 31.8604 0 30.8601 0C28.1845 0 24.1226 1.93493 19.4198 5.44779C14.3843 9.04974 7.85048 16.2118 6.1387 18.5145C0.746014 25.4494 -1.29241 31.0684 0.819759 33.18C1.36285 33.7247 2.14677 34 3.14672 34H3.14775C7.29841 34 14.8935 29.1952 22.0463 22.0415C26.4135 17.6729 29.9677 13.1019 32.0584 9.16872C34.1769 5.17577 34.5769 2.2097 33.1853 0.816548ZM11.4478 24.3296C10.2777 23.9403 8.83665 23.2241 7.38854 22.3133C6.74758 21.9111 6.11492 21.4679 5.50494 20.9957C5.88594 20.4607 6.29243 19.9134 6.714 19.3634C7.33857 19.6848 7.96445 20.043 8.57635 20.4271C10.0212 21.336 11.2913 22.3257 12.1508 23.2146C13.0092 24.1017 13.0907 24.5116 13.1001 24.5905C13.022 24.6206 12.6767 24.7404 11.4478 24.3296ZM20.7449 16.7849C20.7288 16.808 20.6013 16.8946 20.2373 16.8946C19.9154 16.8946 19.3253 16.8253 18.3434 16.4996C16.7706 15.9756 14.8357 15.0138 12.8953 13.7923C12.6163 13.6178 12.341 13.4328 12.0619 13.2446C12.8507 12.4362 13.6602 11.6439 14.4674 10.8883C14.5292 10.927 14.5903 10.9645 14.6518 11.0028C16.591 12.2227 18.2952 13.5524 19.449 14.7432C20.6169 15.9509 20.8272 16.6513 20.7449 16.7849ZM26.3838 8.13313C26.3838 8.13313 26.3144 8.1783 26.0971 8.1783C25.867 8.1783 25.4394 8.1269 24.7104 7.88523C23.5413 7.4956 22.101 6.78022 20.6523 5.86799C20.6232 5.84914 20.5953 5.83146 20.5674 5.81336C21.2413 5.32381 21.9048 4.86248 22.5451 4.44468C25.4573 6.40977 26.4638 7.95082 26.3838 8.13313Z" fill="#BDBDBD"/>
</svg>
