<svg width="70" height="63" viewBox="0 0 70 63" fill="none" xmlns="http://www.w3.org/2000/svg">
<path d="M32.8448 10.5144C53.5367 13.6897 63.4753 2.72476 63.4966 2.73047C63.9963 2.18504 64.8433 2.14807 65.3888 2.64767C65.6639 2.89964 65.8213 3.2551 65.8233 3.62812C66.4329 28.0765 58.601 42.7215 48.4488 49.9346C44.5119 52.7516 39.9492 54.5694 35.1536 55.2315C30.7333 55.8513 26.2291 55.4271 22.0023 53.9929C13.9191 51.21 7.57836 44.7957 6.20064 35.9786C5.84643 33.7241 5.84222 31.4285 6.18841 29.1727C6.8778 24.6503 8.92403 20.4437 12.0564 17.1095C15.4125 13.5553 19.8632 11.2289 24.6972 10.5023C27.3976 10.0853 30.1461 10.0895 32.8448 10.5144Z" fill="#27AE60"/>
</svg>
