<svg width="38" height="40" viewBox="0 0 38 40" fill="none" xmlns="http://www.w3.org/2000/svg">
<path d="M36.0672 22.139L30.7293 25.2206L27.2998 23.2407L31.3568 20.8984C31.7209 20.6882 31.9452 20.3 31.9452 19.8795C31.9452 19.4592 31.7209 19.0707 31.3568 18.8608L27.091 16.3977L30.729 14.2972L36.0672 17.3792C36.2524 17.4863 36.4548 17.5369 36.6543 17.5369C37.0611 17.5369 37.4563 17.326 37.6742 16.9485C37.9992 16.3858 37.8064 15.6662 37.2436 15.3415L33.0823 12.9388L36.0147 11.2454C36.5774 10.9207 36.7703 10.2011 36.4453 9.63837C36.1206 9.07562 35.401 8.88275 34.8382 9.20807L31.9055 10.9009V6.09558C31.9055 5.44586 31.3788 4.91913 30.729 4.91913C30.0793 4.91913 29.5526 5.44586 29.5526 6.09558V12.2595L26.019 14.2996V9.61487C26.019 9.19464 25.7947 8.80615 25.4306 8.59589C25.0665 8.38593 24.6182 8.38593 24.2541 8.59589L20.0924 10.9985V6.79749L25.4306 3.71552C25.9933 3.39081 26.1862 2.6712 25.8612 2.10846C25.5362 1.54572 24.8169 1.35315 24.2541 1.67786L20.0924 4.08051V1.17645C20.0924 0.526733 19.5657 0 18.916 0C18.2663 0 17.7395 0.526733 17.7395 1.17645V4.08051L13.5779 1.67786C13.0154 1.35284 12.2955 1.54572 11.9708 2.10846C11.6461 2.6712 11.8387 3.39081 12.4014 3.71552L17.7395 6.79749V10.9985L13.5779 8.59589C13.2141 8.38562 12.7655 8.38562 12.4014 8.59589C12.0373 8.80615 11.8133 9.19434 11.8133 9.61487V14.2996L8.2794 12.2592V6.09558C8.2794 5.44586 7.75266 4.91913 7.10294 4.91913C6.45323 4.91913 5.92649 5.44586 5.92649 6.09558V10.9009L3.41123 9.44885C2.84849 9.12384 2.12919 9.31671 1.80418 9.87946C1.47947 10.4422 1.67234 11.1618 2.23478 11.4865L4.75004 12.9385L0.588357 15.3412C0.0256127 15.6662 -0.166953 16.3855 0.157754 16.9482C0.375649 17.3257 0.771157 17.5369 1.17765 17.5369C1.37724 17.5369 1.57957 17.486 1.76481 17.3788L7.10294 14.2969L10.7412 16.3977L6.4752 18.8605C6.11112 19.0707 5.88682 19.4589 5.88682 19.8795C5.88682 20.2997 6.11112 20.6882 6.4752 20.8981L10.5325 23.2407L7.10294 25.2206L1.76481 22.1387C1.20207 21.8137 0.482461 22.0065 0.157754 22.5693C-0.166953 23.132 0.0256127 23.8516 0.588357 24.1763L4.75004 26.579L2.23478 28.031C1.67234 28.356 1.47947 29.0753 1.80418 29.6381C2.02207 30.0156 2.41758 30.2267 2.82407 30.2267C3.02366 30.2267 3.22599 30.1758 3.41123 30.0687L5.92649 28.6166V33.4222C5.92649 34.072 6.45323 34.5987 7.10294 34.5987C7.75266 34.5987 8.2794 34.072 8.2794 33.4222V27.2583L11.8133 25.2179V30.144C11.8133 30.5643 12.0373 30.9528 12.4014 31.1627C12.7655 31.373 13.2141 31.373 13.5779 31.1627L17.7395 28.7604V32.7203L12.4014 35.8023C11.8387 36.127 11.6461 36.8466 11.9708 37.4094C12.2958 37.9721 13.0154 38.165 13.5779 37.84L17.7395 35.4373V38.8235C17.7395 39.4733 18.2663 40 18.916 40C19.5657 40 20.0924 39.4733 20.0924 38.8235V35.4373L24.2541 37.84C24.4394 37.9471 24.6417 37.9977 24.8413 37.9977C25.2478 37.9977 25.6433 37.7869 25.8612 37.4094C26.1862 36.8466 25.9933 36.127 25.4306 35.8023L20.0924 32.7203V28.7604L24.2541 31.163C24.436 31.268 24.6393 31.3208 24.8425 31.3208C25.0455 31.3208 25.2487 31.268 25.4306 31.163C25.7947 30.9528 26.019 30.5646 26.019 30.1443V25.2182L29.5529 27.2586V33.4225C29.5529 34.0723 30.0796 34.599 30.7293 34.599C31.3791 34.599 31.9058 34.0723 31.9058 33.4225V28.6169L34.8382 30.3101C35.0235 30.4172 35.2258 30.4681 35.4254 30.4681C35.8322 30.4681 36.2274 30.257 36.4453 29.8795C36.7703 29.3167 36.5774 28.5971 36.0147 28.2724L33.0823 26.5793L37.2439 24.1766C37.8067 23.8519 37.9992 23.1323 37.6745 22.5696C37.3495 22.0065 36.6299 21.814 36.0672 22.139ZM12.8854 21.8823L9.41648 19.8795L13.0942 17.756L16.5631 19.7589L12.8854 21.8823ZM17.7395 26.0434L14.1662 28.1064V23.8599L17.7395 21.7966V26.0434ZM17.7395 17.7213L14.1662 15.6583V11.6525L17.7395 13.7155V17.7213ZM20.0924 13.7155L23.6661 11.6525V15.6583L20.0924 17.7213V13.7155ZM23.6658 28.1064L20.0924 26.0434V21.7966L23.6661 23.8596V28.1064H23.6658ZM24.9469 21.8823L21.2689 19.7589L24.7381 17.756L28.4158 19.8795L24.9469 21.8823Z" fill="#BDBDBD"/>
</svg>
