<svg width="34" height="35" viewBox="0 0 34 35" fill="none" xmlns="http://www.w3.org/2000/svg">
<path d="M27.9993 6.85165C24.0723 2.92392 19.6944 0.848877 15.3381 0.848877C13.5781 0.848877 11.8234 1.18751 10.1242 1.85531L9.35498 2.15744L9.80446 2.8516C12.4452 6.9287 15.1192 8.08654 16.7359 8.38461C13.1462 13.41 14.7474 17.8176 15.1279 18.6983L15.2341 18.9437L15.4794 19.0498C15.8444 19.2073 17.1807 19.723 19.0597 19.723C20.7265 19.723 23.1699 19.304 25.7938 17.4391C26.1081 19.1296 27.3782 22.0563 32.0987 24.8532L32.7922 25.2642L33.0761 24.5092C35.2931 18.6125 33.4898 12.3414 27.9993 6.85165Z" fill="#BDBDBD"/>
<path d="M25.0258 19.5088C22.6757 20.7782 20.5418 21.0749 19.0596 21.0749C16.9818 21.0749 15.4887 20.526 14.9433 20.2908L14.2052 19.9711L13.8861 19.2344C13.511 18.3679 11.9476 14.1299 14.6607 9.14978C13.0446 8.44886 11.1338 7.05783 9.24533 4.41772C8.11453 5.1227 7.02023 6.00003 5.97527 7.04499C3.00396 10.0163 0.90661 15.0782 0.219208 20.9343C-0.0923868 23.5866 -0.0646744 26.0557 0.257059 28.0922C0.68018 24.153 3.17227 18.8241 7.02428 16.4645C7.34399 16.2698 7.759 16.3692 7.95366 16.6875C8.149 17.0059 8.04897 17.4223 7.73061 17.6169C4.34092 19.6926 1.94684 24.6667 1.59063 28.2754L1.59131 31.4251L1.72987 30.7722C2.16786 28.4883 4.57343 24.5085 7.32101 22.4706C7.61976 22.2483 8.04288 22.3105 8.26593 22.6106C8.48831 22.91 8.42545 23.3331 8.12602 23.5555C5.7387 25.327 3.43925 29.0331 3.05466 31.0392L2.77686 32.3565H4.97357C8.6485 32.5397 14.6168 29.882 16.8818 26.1807C17.0764 25.863 17.4914 25.763 17.8112 25.9577C18.1295 26.1523 18.2295 26.568 18.0342 26.887C15.5779 30.8999 9.45419 33.7178 5.36019 33.7178C5.21757 33.7178 5.07766 33.7144 4.94045 33.7077H3.52036C5.12835 34.5478 7.47106 35 10.3329 35C10.3335 35 10.3329 35 10.3335 35C15.9734 35 23.5598 33.1034 27.7971 28.8668C28.8833 27.7806 29.7876 26.637 30.5068 25.4514C27.3746 23.4054 25.795 21.2898 25.0258 19.5088Z" fill="#BDBDBD"/>
</svg>
