<svg width="108" height="109" viewBox="0 0 108 109" fill="none" xmlns="http://www.w3.org/2000/svg">
<path d="M108 103.612C108 104.962 107.55 106.088 106.65 106.987C105.75 107.662 104.85 108.112 103.5 108.112H4.5C3.37511 108.112 2.25 107.662 1.34991 106.987C0.449828 106.087 0 104.962 0 103.612V37.6874H108V103.612Z" fill="#FFD15C"/>
<path d="M106.65 106.987C105.75 107.662 104.85 108.112 103.5 108.112H4.50019C3.37529 108.112 2.25018 107.662 1.3501 106.987L54 61.7626L106.65 106.987Z" fill="#F8B64C"/>
<path d="M108 37.6873L92.7001 48.7123L56.9251 74.3624C55.1252 75.7123 52.6502 75.7123 50.8502 74.3624L15.3002 48.7123L0.000244141 37.6873L15.3002 26.6623L48.6002 2.81239L51.0752 1.01244C52.8752 -0.337479 55.3502 -0.337479 57.1502 1.01244L59.6252 2.81239L75.6002 14.2874L83.4751 19.9123L92.7001 26.6623L108 37.6873Z" fill="#40596B"/>
<path d="M92.6997 16.7624V48.7123L56.9247 74.3624C55.1248 75.7123 52.6497 75.7123 50.8498 74.3624L15.2998 48.7123V7.31238C15.2998 4.83736 17.3248 2.81238 19.7998 2.81238H78.5246L92.6997 16.7624Z" fill="#F2F2F2"/>
<path d="M78.7497 13.1625C78.7497 15.1875 80.3247 16.7624 82.3496 16.7624H92.6996L78.7495 2.81238L78.7497 13.1625Z" fill="#CDD6E0"/>
<path d="M67.2751 48.0379H70.875C69.7501 50.5129 67.9499 52.3129 65.4749 53.6628C62.7749 55.2377 59.4 55.9128 55.35 55.9128C51.5251 55.9128 48.15 55.2377 45.4499 53.8878C42.7499 52.5379 40.4999 50.7377 39.15 48.0379C37.8001 45.5628 37.125 42.6378 37.125 39.7129C37.125 36.338 37.8001 33.413 39.375 30.4879C40.9499 27.5628 42.9749 25.5379 45.675 24.1879C48.375 22.838 51.5249 22.163 54.9 22.163C57.8251 22.163 60.5249 22.838 62.7749 23.9629C65.0249 25.0878 66.8248 26.663 67.95 28.913C69.0748 30.9379 69.7499 33.413 69.7499 35.888C69.7499 38.8131 68.8498 41.5129 67.0499 43.9879C64.7999 47.138 61.8748 48.4879 58.2749 48.4879C57.3748 48.4879 56.4749 48.2629 56.0249 48.0379C55.5748 47.5878 55.1248 47.1378 55.1248 46.4629C53.7749 47.8129 52.1997 48.4879 50.3998 48.4879C48.3748 48.4879 46.7999 47.8129 45.6747 46.4629C44.3248 45.113 43.6498 43.3128 43.6498 41.0628C43.6498 38.3628 44.3248 35.8878 45.8998 33.4128C47.6997 30.7127 50.1747 29.3628 53.0998 29.3628C55.1248 29.3628 56.6997 30.2629 57.8248 31.8378L58.2749 29.8128H62.9999L60.2999 42.4128C60.0748 43.3128 60.0748 43.7627 60.0748 43.9877C60.0748 44.2127 60.0748 44.4377 60.2999 44.6628C60.5249 44.8878 60.5249 44.8878 60.7499 44.8878C61.1999 44.8878 62.0998 44.4377 62.9999 43.7629C64.1248 42.8628 65.2499 41.7379 65.925 40.163C66.6 38.588 67.0499 37.0129 67.0499 35.438C67.0499 32.5129 65.925 30.0379 63.8998 28.2379C61.8748 26.2129 58.9497 25.3128 55.1248 25.3128C51.9747 25.3128 49.2749 25.9879 47.0249 27.3378C44.7749 28.6877 43.1999 30.4879 42.0748 32.7379C40.9497 34.9879 40.4999 37.4629 40.4999 40.163C40.4999 42.638 41.175 44.888 42.2999 46.913C43.6498 48.938 45.2249 50.5129 47.4749 51.413C49.7249 52.3131 52.1999 52.7629 55.125 52.7629C57.8251 52.7629 60.3001 52.3128 62.3251 51.638C64.35 50.7377 65.925 49.6128 67.2751 48.0379ZM48.15 40.8378C48.15 42.4128 48.375 43.3128 49.0501 44.2127C49.7251 44.8878 50.4 45.3376 51.3001 45.3376C51.9751 45.3376 52.65 45.1126 53.1 44.8876C53.5501 44.6625 54.0001 44.2125 54.4499 43.7627C55.125 43.0876 55.5751 41.9627 56.0249 40.6126C56.4749 39.2627 56.6999 37.9125 56.6999 36.7876C56.6999 35.4377 56.4749 34.5376 55.7999 33.6376C55.1248 32.9625 54.4499 32.5127 53.5499 32.5127C52.6498 32.5127 51.5249 32.9627 50.8498 33.6376C49.9497 34.3126 49.2749 35.4375 48.8248 37.0125C48.375 38.3628 48.15 39.7127 48.15 40.8378Z" fill="#FF7058"/>
</svg>
