<svg width="39" height="39" viewBox="0 0 39 39" fill="none" xmlns="http://www.w3.org/2000/svg">
<circle cx="19.5" cy="19.5" r="19.5" fill="#36A66A"/>
<path d="M19.6011 20.88C16.5257 20.88 14.034 17.8929 14.034 14.2108C14.034 10.5291 16.5257 7.80005 19.6011 7.80005C22.6771 7.80005 25.1709 10.5291 25.1709 14.2108C25.1709 17.8929 22.677 20.88 19.6011 20.88ZM10.9412 29.8959C10.9412 29.8959 9.7603 29.9738 9.24016 29.2571C8.95912 28.8699 9.1549 28.0853 9.34709 27.6475L9.81778 26.5748C9.81778 26.5748 11.1195 23.6635 12.6013 21.9764C13.5116 20.9419 14.5942 21.1775 15.2944 21.5139C15.7257 21.7209 16.2134 22.3241 16.5697 22.6438C17.0608 23.0842 17.9278 23.5848 19.3451 23.6129H20.2147C21.6311 23.5848 22.4981 23.0842 22.9888 22.6438C23.3447 22.3242 23.8189 21.7023 24.2463 21.4884C24.889 21.1667 25.8671 20.9688 26.7536 21.9765C28.2359 23.6637 29.4098 26.6278 29.4098 26.6278L29.8922 27.6797C30.0918 28.1145 30.2963 28.8952 30.023 29.2875C29.5355 29.989 28.4407 29.896 28.4407 29.896L10.9412 29.8959Z" fill="white"/>
</svg>
