<svg width="34" height="33" viewBox="0 0 34 33" fill="none" xmlns="http://www.w3.org/2000/svg">
<path d="M15.8987 29.1971C17.857 27.2388 20.2405 23.3848 23.3975 18.2242C24.509 16.4053 26.2897 14.7223 27.8891 13.0671C27.6173 12.304 27.3037 11.3597 27.1678 10.6871C27.1016 10.3631 27.0319 9.94144 26.9622 9.51284C26.565 9.7916 26.4047 9.87872 26.335 9.91705C25.6032 10.3178 24.6101 10.722 23.9062 10.9903C23.7425 11.053 23.5717 11.0844 23.3975 11.0844C22.941 11.0844 22.5194 10.8614 22.2615 10.492C22.0037 10.1192 21.9514 9.63828 22.1186 9.2062C22.3869 8.50232 22.7946 7.50922 23.1919 6.77746C23.2302 6.70777 23.3173 6.54748 23.5961 6.15024C23.164 6.08403 22.7459 6.01086 22.4218 5.94465C21.7702 5.81224 20.8677 5.51605 20.1185 5.25122C18.5156 6.81927 16.8256 8.55807 14.8812 9.71494C9.2153 13.0915 5.41016 15.2484 3.67485 16.9837C-0.311484 20.9631 -1.54153 26.6395 2.4448 30.6293C6.43117 34.6191 11.9089 33.1869 15.8987 29.1971Z" fill="#8E8E8E"/>
<path d="M32.1542 0.101052C32.0636 0.0348456 31.966 0 31.8719 0C31.7047 0 31.5514 0.101052 31.4677 0.289219C31.2935 0.67252 30.9799 1.16733 30.5408 1.78758C29.8125 2.96885 28.8334 3.34866 28.8334 3.34866C28.2445 2.93052 27.5754 2.53328 26.9273 2.21966C26.2304 1.88166 25.4568 1.6935 24.6833 1.6935C24.2129 1.6935 23.739 1.76319 23.286 1.91302C22.3033 2.23709 21.0245 2.9793 20.0453 3.60652C19.777 3.77726 19.8049 4.01421 20.1011 4.12223C20.3415 4.20935 20.6412 4.31737 20.9618 4.42539C21.5297 4.61704 22.1605 4.81218 22.6239 4.90626C23.2476 5.0317 24.2721 5.18503 24.9133 5.27562C25.2269 5.32092 25.3244 5.55787 25.1328 5.80876C24.7843 6.26524 24.2825 6.94124 24.1083 7.26182C23.725 7.96222 23.3243 8.95532 23.0943 9.56512C22.9967 9.81601 23.1745 10.0286 23.3975 10.0286C23.4392 10.0286 23.4846 10.0216 23.5299 10.0042C24.1362 9.77071 25.1328 9.37347 25.8332 8.99017C26.1538 8.81594 26.8298 8.31068 27.2862 7.9657C27.3734 7.8995 27.4605 7.86814 27.5371 7.86814C27.68 7.86814 27.7915 7.97964 27.8194 8.18523C27.91 8.82291 28.0598 9.85085 28.1888 10.4746C28.2863 10.9589 28.4954 11.621 28.694 12.2064C28.7951 12.5026 28.8926 12.7779 28.9763 13.0009C29.0355 13.1612 29.1296 13.2413 29.2307 13.2413C29.3178 13.2413 29.4119 13.1786 29.492 13.0566C30.1192 12.0774 30.8614 10.7987 31.1855 9.81601C31.3075 9.44664 31.3807 9.04592 31.4015 8.65913C31.4817 7.13638 30.7569 5.90633 30.0008 4.65189C29.9798 4.61704 29.7638 4.33479 29.7778 4.29646C29.7778 4.29646 30.1959 3.41487 31.3389 2.58903C31.973 2.15346 32.325 1.88863 32.8163 1.63774C33.1055 1.50533 33.1926 1.20566 33.0044 0.951285C32.7501 0.606313 32.5027 0.35891 32.1542 0.101052Z" fill="#8E8E8E"/>
</svg>
